<mxfile host="65bd71144e">
    <diagram id="La050qy_t3CkR20OAuoJ" name="Page-1">
        <mxGraphModel dx="874" dy="1150" grid="1" gridSize="10" guides="1" tooltips="1" connect="1" arrows="1" fold="1" page="1" pageScale="1" pageWidth="827" pageHeight="1169" math="0" shadow="0">
            <root>
                <mxCell id="0"/>
                <mxCell id="1" parent="0"/>
                <mxCell id="3" value="public class FacilityService{&lt;br&gt;&amp;nbsp; public void setFacility(...){&lt;br&gt;&amp;nbsp; &amp;nbsp; xxxx&amp;nbsp;&lt;br&gt;&amp;nbsp; &amp;nbsp; dao.update(...);&lt;br&gt;&amp;nbsp; &amp;nbsp; xxxx&lt;br&gt;&amp;nbsp; }&lt;br&gt;}" style="rounded=1;whiteSpace=wrap;html=1;align=left;" parent="1" vertex="1">
                    <mxGeometry x="80" y="760" width="190" height="100" as="geometry"/>
                </mxCell>
                <mxCell id="24" style="edgeStyle=none;html=1;exitX=0.99;exitY=0.5;exitDx=0;exitDy=0;exitPerimeter=0;" parent="1" source="5" target="23" edge="1">
                    <mxGeometry relative="1" as="geometry">
                        <mxPoint x="300" y="305.5" as="targetPoint"/>
                    </mxGeometry>
                </mxCell>
                <mxCell id="5" value="领域专家" style="shape=mxgraph.cisco.people.standing_woman;html=1;pointerEvents=1;dashed=0;fillColor=#036897;strokeColor=#ffffff;strokeWidth=2;verticalLabelPosition=bottom;verticalAlign=top;align=center;outlineConnect=0;" parent="1" vertex="1">
                    <mxGeometry x="170" y="235.5" width="51" height="140" as="geometry"/>
                </mxCell>
                <mxCell id="25" style="edgeStyle=none;html=1;" parent="1" source="6" target="23" edge="1">
                    <mxGeometry relative="1" as="geometry"/>
                </mxCell>
                <mxCell id="27" style="edgeStyle=none;html=1;" parent="1" source="6" target="26" edge="1">
                    <mxGeometry relative="1" as="geometry"/>
                </mxCell>
                <mxCell id="29" style="edgeStyle=none;html=1;entryX=0;entryY=0.5;entryDx=0;entryDy=0;entryPerimeter=0;" parent="1" source="6" target="30" edge="1">
                    <mxGeometry relative="1" as="geometry">
                        <mxPoint x="750" y="360" as="targetPoint"/>
                    </mxGeometry>
                </mxCell>
                <mxCell id="6" value="产品、运营" style="shape=mxgraph.cisco.people.standing_man;html=1;pointerEvents=1;dashed=0;fillColor=#036897;strokeColor=#ffffff;strokeWidth=2;verticalLabelPosition=bottom;verticalAlign=top;align=center;outlineConnect=0;" parent="1" vertex="1">
                    <mxGeometry x="570" y="240" width="50" height="140" as="geometry"/>
                </mxCell>
                <mxCell id="21" value="编写代码" style="edgeStyle=none;html=1;" parent="1" source="8" target="3" edge="1">
                    <mxGeometry relative="1" as="geometry"/>
                </mxCell>
                <mxCell id="28" style="edgeStyle=none;html=1;exitX=0.23;exitY=0;exitDx=0;exitDy=0;exitPerimeter=0;" parent="1" source="8" target="26" edge="1">
                    <mxGeometry relative="1" as="geometry"/>
                </mxCell>
                <mxCell id="34" style="edgeStyle=none;html=1;entryX=1;entryY=0.5;entryDx=0;entryDy=0;entryPerimeter=0;" parent="1" source="8" target="33" edge="1">
                    <mxGeometry relative="1" as="geometry"/>
                </mxCell>
                <mxCell id="35" value="编写文档" style="edgeLabel;html=1;align=center;verticalAlign=middle;resizable=0;points=[];" parent="34" vertex="1" connectable="0">
                    <mxGeometry x="0.313" y="-2" relative="1" as="geometry">
                        <mxPoint as="offset"/>
                    </mxGeometry>
                </mxCell>
                <mxCell id="8" value="程序员" style="shape=mxgraph.cisco.people.androgenous_person;html=1;pointerEvents=1;dashed=0;fillColor=#036897;strokeColor=#ffffff;strokeWidth=2;verticalLabelPosition=bottom;verticalAlign=top;align=center;outlineConnect=0;" parent="1" vertex="1">
                    <mxGeometry x="420" y="670" width="90" height="110" as="geometry"/>
                </mxCell>
                <mxCell id="9" value="需要建这样几张表，要保存XXX这些信息。&lt;br&gt;提供一个维护接口，提供一个高性能的读接口" style="whiteSpace=wrap;html=1;shape=mxgraph.basic.cloud_callout" parent="1" vertex="1">
                    <mxGeometry x="530" y="530" width="340" height="210" as="geometry"/>
                </mxCell>
                <mxCell id="10" value="酒店可以在OTA上展示特色的设施设备" style="whiteSpace=wrap;html=1;shape=mxgraph.basic.cloud_callout" parent="1" vertex="1">
                    <mxGeometry x="181" y="55.5" width="180" height="150" as="geometry"/>
                </mxCell>
                <mxCell id="12" value="后台要有可以维护设施设备的页面。&lt;br&gt;对于特殊的设施设备，要有运营的审核和维护界面。&lt;br&gt;前端页面要能够展示酒店设施设备。" style="whiteSpace=wrap;html=1;shape=mxgraph.basic.cloud_callout" parent="1" vertex="1">
                    <mxGeometry x="630" width="340" height="260" as="geometry"/>
                </mxCell>
                <mxCell id="15" value="" style="html=1;verticalLabelPosition=bottom;align=center;labelBackgroundColor=#ffffff;verticalAlign=top;strokeWidth=2;strokeColor=#0080F0;shadow=0;dashed=0;shape=mxgraph.ios7.icons.home;" parent="1" vertex="1">
                    <mxGeometry x="259" y="75.5" width="24" height="25.5" as="geometry"/>
                </mxCell>
                <mxCell id="20" value="" style="html=1;verticalLabelPosition=bottom;align=center;labelBackgroundColor=#ffffff;verticalAlign=top;strokeWidth=2;strokeColor=#0080F0;shadow=0;dashed=0;shape=mxgraph.ios7.icons.window;" parent="1" vertex="1">
                    <mxGeometry x="740" y="55.5" width="105" height="50" as="geometry"/>
                </mxCell>
                <mxCell id="23" value="沟通：&#10;！#@（！&amp;￥）（@*））#！#" style="text;strokeColor=none;fillColor=none;align=left;verticalAlign=top;spacingLeft=4;spacingRight=4;overflow=hidden;rotatable=0;points=[[0,0.5],[1,0.5]];portConstraint=eastwest;" parent="1" vertex="1">
                    <mxGeometry x="319" y="291.75" width="191" height="36.5" as="geometry"/>
                </mxCell>
                <mxCell id="26" value="沟通：&#10;！#@（！&amp;￥）（@*））#！#" style="text;strokeColor=none;fillColor=none;align=left;verticalAlign=top;spacingLeft=4;spacingRight=4;overflow=hidden;rotatable=0;points=[[0,0.5],[1,0.5]];portConstraint=eastwest;" parent="1" vertex="1">
                    <mxGeometry x="410" y="500" width="191" height="36.5" as="geometry"/>
                </mxCell>
                <mxCell id="30" value="User Story /&lt;br&gt;PRD&lt;br&gt;需求文档" style="whiteSpace=wrap;html=1;shape=mxgraph.basic.document" parent="1" vertex="1">
                    <mxGeometry x="730" y="310" width="100" height="100" as="geometry"/>
                </mxCell>
                <mxCell id="31" value="" style="shape=datastore;whiteSpace=wrap;html=1;" parent="1" vertex="1">
                    <mxGeometry x="670" y="550" width="60" height="60" as="geometry"/>
                </mxCell>
                <mxCell id="33" value="XXX设计文档&lt;br&gt;&lt;br&gt;数据库ER设计&lt;br&gt;接口设计&lt;br&gt;非功能性设计" style="whiteSpace=wrap;html=1;shape=mxgraph.basic.document" parent="1" vertex="1">
                    <mxGeometry x="150" y="585" width="110" height="125" as="geometry"/>
                </mxCell>
            </root>
        </mxGraphModel>
    </diagram>
</mxfile>